<svg xmlns="http://www.w3.org/2000/svg" viewBox="0 0 919 1908" fill="none" stroke="#fff" stroke-width="6" xmlns:v="https://vecta.io/nano"><path d="M546.749 27c201 124 272.907 1026.55 224.5 1278.5-19.471 109.25-109.143 171.89-172.474 272.83-64.474 94.53-79.556 155.67-89.25 269.75M566 31c201 124 272.405 1031.05 223.997 1283-19.471 109.25-109.143 171.89-172.473 272.83-64.474 94.53-79.556 155.68-89.25 269.75M591 36.5c186.136 122.934 261.066 1033.65 217.746 1286-19.47 109.25-109.142 171.89-172.473 272.83-64.474 94.53-79.556 155.68-89.25 269.75M598 26.5C790.638 141.355 874.234 1078.34 827.495 1331c-19.471 109.25-109.143 171.89-172.474 272.83-64.473 94.53-79.555 155.68-89.25 269.75M601.5 3.5c201 124 293.152 1084.05 244.745 1336-19.471 109.25-109.143 171.89-172.474 272.83-64.474 94.53-79.556 155.68-89.25 269.75"/></svg>