<svg xmlns="http://www.w3.org/2000/svg" width="122" height="80" fill="none" xmlns:v="https://vecta.io/nano"><rect width="121.246" height="38.353" rx="5" fill="#fff"/><path d="M25.867 63.396c3.105-19.024 3.032-29.114 2.62-45.396m15.459 45.396c3.105-19.024 3.032-29.114 2.62-45.396m13.118 45.396c3.105-19.024 3.032-29.114 2.62-45.396m14.865 45.396C80.275 44.372 80.202 34.282 79.79 18m14.865 45.396c3.106-19.024 3.032-29.114 2.62-45.396" stroke="#000" stroke-width="4"/><path d="M43.698 61.893l-1.237 17.321m16.975-17.321l-1.237 17.321m18.723-17.321l-1.237 17.321m18.722-17.321L93.17 79.214M25.619 61.893l-1.237 17.321" stroke="#fff" stroke-width="6"/><g fill="#e43333"><rect x="74.232" y="12.372" width="11.135" height="11.135" rx="2"/><rect x="56.912" y="12.372" width="11.135" height="11.135" rx="2"/><rect x="22.27" y="12.372" width="11.135" height="11.135" rx="2"/><rect x="39.591" y="12.372" width="11.135" height="11.135" rx="2"/><rect x="90.316" y="12.372" width="11.135" height="11.135" rx="2"/></g></svg>