<svg xmlns="http://www.w3.org/2000/svg" width="122" height="79" fill="none" xmlns:v="https://vecta.io/nano"><rect x="121.246" y="79" width="121.246" height="38.353" rx="5" transform="rotate(180 121.246 79)" fill="#fff"/><path d="M95.38 15.604C92.274 34.628 92.347 44.718 92.759 61M77.3 15.604C74.194 34.628 74.267 44.718 74.679 61M61.563 15.604C58.457 34.628 58.53 44.718 58.942 61M44.077 15.604C40.971 34.628 41.044 44.718 41.456 61M26.591 15.604C23.485 34.628 23.559 44.718 23.971 61" stroke="#000" stroke-width="4"/><path d="M77.548 17.107L78.785-.214M61.811 17.107L63.048-.214M44.325 17.107L45.562-.214M26.839 17.107L28.076-.214m67.551 17.321L96.865-.214" stroke="#fff" stroke-width="6"/><g fill="#e43333"><rect x="47.014" y="66.629" width="11.135" height="11.135" rx="2" transform="rotate(180 47.014 66.629)"/><rect x="64.335" y="66.629" width="11.135" height="11.135" rx="2" transform="rotate(180 64.335 66.629)"/><rect x="98.976" y="66.629" width="11.135" height="11.135" rx="2" transform="rotate(180 98.976 66.629)"/><rect x="81.656" y="66.629" width="11.135" height="11.135" rx="2" transform="rotate(180 81.656 66.629)"/><rect x="30.93" y="66.629" width="11.135" height="11.135" rx="2" transform="rotate(180 30.93 66.629)"/></g></svg>