<svg xmlns="http://www.w3.org/2000/svg" width="264" height="264" fill="none" xmlns:v="https://vecta.io/nano"><path d="M132 33H99c-18.225 0-33 14.775-33 33s14.775 33 33 33m33-66v66m0-66h33c18.226 0 33 14.775 33 33s-14.774 33-33 33m-66 0h33m-33 0c-18.225 0-33 14.774-33 33s14.775 33 33 33m33-66h33m-33 0v66m33-66c18.226 0 33 14.774 33 33s-14.774 33-33 33-33-14.774-33-33 14.774-33 33-33zm-33 66H99m33 0v33c0 18.226-14.774 33-33 33s-33-14.774-33-33 14.775-33 33-33" stroke="#fff" stroke-width="16" stroke-linecap="round" stroke-linejoin="round"/></svg>