<svg xmlns="http://www.w3.org/2000/svg" width="28" height="28" fill="none" xmlns:v="https://vecta.io/nano"><path fill-rule="evenodd" d="M14 .875c7.249 0 13.125 6.024 13.125 13.457 0 5.944-3.756 10.987-8.968 12.768-.666.133-.902-.288-.902-.646l.016-3.693c0-1.255-.42-2.074-.891-2.491 2.923-.333 5.994-1.471 5.994-6.64 0-1.47-.509-2.67-1.352-3.612.137-.34.587-1.709-.129-3.562 0 0-1.1-.361-3.605 1.38-1.049-.298-2.172-.448-3.288-.453-1.116.005-2.238.155-3.285.453-2.508-1.74-3.611-1.38-3.611-1.38-.713 1.853-.262 3.222-.127 3.562-.839.942-1.352 2.142-1.352 3.612 0 5.156 3.065 6.311 5.98 6.651-.375.336-.715.929-.833 1.799-.748.344-2.649.939-3.819-1.118 0 0-.694-1.293-2.012-1.387 0 0-1.28-.017-.089.818 0 0 .86.413 1.457 1.969 0 0 .77 2.402 4.422 1.588l.018 2.505c0 .356-.242.772-.896.647C4.635 25.323.875 20.278.875 14.332.875 6.899 6.752.875 14 .875z" fill="#fff"/></svg>