<svg width="44" height="44" viewBox="0 0 44 44" fill="none" xmlns="http://www.w3.org/2000/svg">
<g clip-path="url(#clip0_12_21)">
<path fill-rule="evenodd" clip-rule="evenodd" d="M22 0C34.1506 0 44 10.0978 44 22.5564C44 32.5202 37.7036 40.9727 28.9674 43.9581C27.852 44.1803 27.456 43.4759 27.456 42.8753C27.456 42.1317 27.4824 39.703 27.4824 36.6846C27.4824 34.5814 26.7784 33.2087 25.9886 32.5091C30.888 31.9503 36.036 30.0427 36.036 21.3791C36.036 18.9151 35.1824 16.9044 33.77 15.3248C33.9988 14.755 34.7534 12.4607 33.5544 9.3543C33.5544 9.3543 31.7108 8.74989 27.511 11.6671C25.7532 11.1677 23.87 10.9164 22 10.9076C20.13 10.9164 18.249 11.1677 16.4934 11.6671C12.2892 8.74989 10.4412 9.3543 10.4412 9.3543C9.2466 12.4607 10.0012 14.755 10.2278 15.3248C8.822 16.9044 7.96181 18.9151 7.96181 21.3791C7.96181 30.0207 13.0988 31.9575 17.985 32.5273C17.3558 33.0905 16.786 34.0841 16.588 35.5427C15.334 36.1191 12.1484 37.1166 10.186 33.6692C10.186 33.6692 9.0222 31.502 6.8134 31.3436C6.8134 31.3436 4.6684 31.3151 6.6638 32.7143C6.6638 32.7143 8.1048 33.4073 9.1058 36.0143C9.1058 36.0143 10.3972 40.0402 16.5176 38.6762C16.5286 40.5616 16.5484 42.3385 16.5484 42.8753C16.5484 43.4715 16.1436 44.1693 15.0458 43.9603C6.30299 40.9793 0 32.5224 0 22.5564C0 10.0978 9.8516 0 22 0Z" fill="white"/>
</g>
<defs>
<clipPath id="clip0_12_21">
<rect width="44" height="44" fill="white"/>
</clipPath>
</defs>
</svg>
