<svg xmlns="http://www.w3.org/2000/svg" viewBox="0 0 496 494" fill="none" xmlns:v="https://vecta.io/nano"><g clip-path="url(#B)"><g filter="url(#A)"><path d="M127.115 149.968l-.194.241.128.28 24.858 54.613.299.656.51-.509 26.399-26.363 53.942-7.695.165-.024.118-.118 50.313-50.243.256-.255-.162-.323-13.146-26.253-.117-.234-.259-.037c-7.259-1.04-14.678-1.578-22.225-1.578-48.869 0-92.459 22.572-120.885 57.843zm-18.798 31.566l-.449-.986-.459.982c-9.303 19.887-14.498 42.072-14.498 65.47 0 76.292 55.24 139.699 127.955 152.513l.334.059.178-.289 8.474-13.71.176-.285-.196-.271-46.863-64.998 31.914-41.311.372-.482-.545-.271-15.282-7.631-.145-.072-.16.026-55.041 9.16-10.742-42.909-.011-.044-.019-.041-24.993-54.91zm55.967 54.413l-.201.2.069.275 2.144 8.567.112.448.455-.076 37.098-6.175 30.884 15.42.138.069.154-.021 55.683-7.724 100.272 58.413.498.291.217-.535c7.277-17.941 11.282-37.553 11.282-58.099 0-63.246-37.963-117.636-92.371-141.689l-1.272-.562.623 1.244 10.241 20.457-72.984 72.883-53.942 7.695-.165.024-.117.117-28.818 28.778zm213.037 96.574l.294-.442-.458-.267-92.323-53.78-.15-.087-.171.023-34.823 4.829-.203.028-.124.162-28.857 37.355-.228.295.218.303 45.476 63.074-10.443 16.896-.501.811.951-.048c50.684-2.565 94.947-29.427 121.342-69.152zM62.993 247c0-102.034 82.83-184.75 185.007-184.75S433.007 144.966 433.007 247 350.178 431.75 248 431.75 62.993 349.035 62.993 247z" fill="#73008f" stroke="#403063"/><path d="M137.271 353.956v-.5h-.5-61.195v-42.934h61.195.5v-.5-60.382h43.179v60.382.5h.5 60.467v42.934H180.95h-.5v.5 104.413h-43.179V353.956z" fill="#fff" stroke="#403063"/></g></g><defs><filter id="A" x="18.688" y="61.75" width="418.82" height="440.25" filterUnits="userSpaceOnUse" color-interpolation-filters="sRGB"><feFlood flood-opacity="0" result="A"/><feColorMatrix in="SourceAlpha" values="0 0 0 0 0 0 0 0 0 0 0 0 0 0 0 0 0 0 127 0" result="B"/><feOffset dy="4"/><feGaussianBlur stdDeviation="2"/><feComposite in2="B" operator="out"/><feColorMatrix values="0 0 0 0 0 0 0 0 0 0 0 0 0 0 0 0 0 0 0.25 0"/><feBlend in2="A"/><feBlend in="SourceGraphic"/></filter><clipPath id="B"><path fill="#fff" transform="translate(.657)" d="M0 0h494.686v494H0z"/></clipPath></defs></svg>