<svg xmlns="http://www.w3.org/2000/svg" width="264" height="264" fill="none" xmlns:v="https://vecta.io/nano"><g clip-path="url(#A)"><path d="M79.2 79.2l7.134-5.152A8.8 8.8 0 0 0 70.4 79.2h8.8zM132 246.4c-63.181 0-114.4-51.218-114.4-114.4H0c0 72.901 59.098 132 132 132v-17.6zM246.4 132c0 63.182-51.218 114.4-114.4 114.4V264c72.901 0 132-59.099 132-132h-17.6zM132 17.6c63.182 0 114.4 51.219 114.4 114.4H264C264 59.098 204.901 0 132 0v17.6zM132 0C59.098 0 0 59.098 0 132h17.6C17.6 68.819 68.819 17.6 132 17.6V0zM88 211.2v-132H70.4v132H88zM72.066 84.352l114.401 158.4 14.266-10.304-114.399-158.4-14.268 10.305zM176 70.4V176h17.6V70.4H176z" fill="#fff"/></g><defs><clipPath id="A"><path fill="#fff" d="M0 0h264v264H0z"/></clipPath></defs></svg>