<svg xmlns="http://www.w3.org/2000/svg" width="300" height="300" fill="none" xmlns:v="https://vecta.io/nano"><path fill-rule="evenodd" d="M132.4 53c3.091 0 5.955 1.625 7.546 4.281l26.882 44.896 10.787-18.375c1.581-2.693 4.467-4.347 7.585-4.347s6.004 1.654 7.585 4.347l88 149.909a8.83 8.83 0 0 1 .053 8.848c-1.566 2.746-4.481 4.441-7.638 4.441H26.8c-3.17 0-6.096-1.709-7.658-4.474a8.83 8.83 0 0 1 .112-8.88l105.6-176.365c1.59-2.656 4.455-4.281 7.546-4.281zm-19.814 176.364h109.871l-55.479-92.657-54.392 92.657zm44.081-109.877l-64.5 109.877H42.343L132.4 78.958l24.267 40.529zm20.472-.09l65.843 109.967h14.832L185.2 105.665l-8.061 13.732z" fill="#fff"/></svg>