<svg xmlns="http://www.w3.org/2000/svg" width="251" height="251" fill="#fff" xmlns:v="https://vecta.io/nano"><path d="M76.083 37.21c-3.937 2.273-8.079 8.54-8.56 22.212a11.77 11.77 0 0 1-12.172 11.345 11.77 11.77 0 0 1-11.345-12.172c.589-16.761 5.89-33.438 20.311-41.764 14.462-8.35 31.61-4.558 46.457 3.363a11.77 11.77 0 0 1 4.843 15.919 11.77 11.77 0 0 1-15.919 4.843c-12.133-6.473-19.667-6.026-23.615-3.746zm63.087 20.408c5.004-4.146 12.421-3.45 16.566 1.554 8.697 10.497 17.04 22.467 24.612 35.584 16.32 28.265 26.382 57.223 29.094 81.513 1.354 12.125.94 23.663-1.892 33.559-2.853 9.971-8.411 18.996-17.733 24.376-11.278 6.512-24.3 5.588-36.219 1.249-11.961-4.355-24.271-12.602-36.007-23.313a11.77 11.77 0 0 1-.757-16.623c4.38-4.798 11.822-5.139 16.621-.757 10.34 9.437 20.058 15.618 28.194 18.582 8.179 2.977 13.325 2.262 16.403.484 2.579-1.488 5.173-4.522 6.875-10.473 1.724-6.024 2.269-14.272 1.13-24.474-2.275-20.364-10.999-46.223-26.087-72.357-6.94-12.02-14.534-22.898-22.354-32.337-4.146-5.004-3.45-12.421 1.554-16.566zm88.299 71.107c0-4.546-3.357-11.267-14.957-18.519a11.77 11.77 0 0 1-3.738-16.214 11.77 11.77 0 0 1 16.213-3.739C239.208 99.144 251 112.073 251 128.725c0 16.699-11.857 29.653-26.14 38.551a11.77 11.77 0 0 1-16.208-3.765 11.77 11.77 0 0 1 3.765-16.208c11.673-7.271 15.052-14.019 15.052-18.578zm-49.218 44.43a11.77 11.77 0 0 1-9.629 13.572c-13.438 2.282-27.976 3.522-43.122 3.522-32.637 0-62.747-5.764-85.138-15.561-11.178-4.89-20.963-11.017-28.117-18.417C5.035 148.814 0 139.488 0 128.725c0-13.022 7.312-23.839 17.029-31.99 9.752-8.181 23.048-14.719 38.194-19.526a11.77 11.77 0 0 1 14.774 7.655 11.77 11.77 0 0 1-7.655 14.774c-13.344 4.235-23.555 9.56-30.189 15.125-6.669 5.595-8.621 10.408-8.621 13.963 0 2.977 1.33 6.741 5.631 11.19 4.356 4.506 11.227 9.101 20.631 13.215 18.773 8.213 45.53 13.587 75.707 13.587 13.88 0 27.097-1.137 39.181-3.191a11.77 11.77 0 0 1 13.57 9.629z"/><path d="M76.428 213.825c3.937 2.273 11.436 2.727 23.516-3.692A11.77 11.77 0 0 1 115.855 215a11.77 11.77 0 0 1-4.868 15.912c-14.81 7.869-31.903 11.618-46.324 3.291-14.462-8.348-19.752-25.095-20.316-41.913a11.77 11.77 0 0 1 11.365-12.154A11.77 11.77 0 0 1 67.865 191.5c.461 13.746 4.615 20.046 8.564 22.325zm-13.87-64.839a11.77 11.77 0 0 1-6.937-15.124c4.742-12.78 10.937-25.99 18.51-39.107 16.319-28.265 36.366-51.458 56.045-65.952 9.824-7.235 20.023-12.646 30.009-15.141 10.062-2.515 20.657-2.213 29.977 3.169 11.278 6.511 16.99 18.251 19.191 30.742 2.209 12.536 1.223 27.32-2.187 42.84a11.77 11.77 0 0 1-14.015 8.967c-6.347-1.394-10.362-7.669-8.967-14.016 3.002-13.674 3.497-25.18 1.995-33.707-1.51-8.573-4.704-12.67-7.782-14.447-2.578-1.489-6.503-2.219-12.506-.719-6.081 1.52-13.496 5.173-21.761 11.26-16.499 12.151-34.532 32.636-49.62 58.77-6.94 12.02-12.563 24.036-16.827 35.528a11.77 11.77 0 0 1-15.124 6.937zm85.834-22.448a21.33 21.33 0 0 1-21.325 21.326 21.33 21.33 0 0 1-21.325-21.326c0-11.777 9.547-21.325 21.325-21.325a21.33 21.33 0 0 1 21.325 21.325z"/></svg>