<svg xmlns="http://www.w3.org/2000/svg" width="264" height="264" fill="none" xmlns:v="https://vecta.io/nano"><path fill-rule="evenodd" d="M132 66c-29.337 0-47.663 14.575-55 43.736 11-14.575 23.837-20.042 38.5-16.401 8.371 2.079 14.355 8.118 20.966 14.795 10.791 10.879 23.276 23.474 50.534 23.474 29.337 0 47.663-14.575 55-43.736-11 14.575-23.826 20.042-38.5 16.401-8.371-2.079-14.355-8.118-20.977-14.795C171.743 78.584 159.269 66 132 66zm-55 65.604c-29.337 0-47.663 14.575-55 43.736 11-14.586 23.837-20.042 38.5-16.401 8.371 2.079 14.355 8.118 20.977 14.795 10.78 10.879 23.265 23.474 50.534 23.474 29.337 0 47.663-14.575 55-43.736-11 14.575-23.837 20.042-38.5 16.401-8.371-2.079-14.355-8.118-20.966-14.795-10.802-10.879-23.287-23.474-50.545-23.474z" fill="#fff"/></svg>