<svg width="696" height="763" viewBox="0 0 696 763" fill="none" xmlns="http://www.w3.org/2000/svg">
<path d="M44.8102 393.365L639.043 657L599.122 746.695L5.04298 483L44.8102 393.365Z" fill="white"/>
<path d="M5.043 483L599.133 746.712L602.633 762.713L11.6329 499.213L5.043 483Z" fill="#C6C6C6"/>
<rect x="98.4412" y="266" width="89.4672" height="98" transform="rotate(24.4306 98.4412 266)" fill="white"/>
<rect x="99.0193" y="123" width="89.4672" height="98" transform="rotate(24.4306 99.0193 123)" fill="white"/>
<rect x="132.019" width="89.4672" height="98" transform="rotate(24.4306 132.019 0)" fill="white"/>
<rect x="300.019" y="359" width="89.4672" height="98" transform="rotate(24.4306 300.019 359)" fill="white"/>
<rect x="500.019" y="452" width="89.4672" height="98" transform="rotate(24.4306 500.019 452)" fill="white"/>
<rect x="300.598" y="216" width="89.4672" height="98" transform="rotate(24.4306 300.598 216)" fill="white"/>
<rect x="333.598" y="93" width="89.4672" height="98" transform="rotate(24.4306 333.598 93)" fill="white"/>
<rect x="499.598" y="311" width="89.4672" height="98" transform="rotate(24.4306 499.598 311)" fill="white"/>
<rect x="532.598" y="188" width="89.4672" height="98" transform="rotate(24.4306 532.598 188)" fill="white"/>
<rect x="199.019" y="311" width="89.5712" height="98" transform="rotate(24.4306 199.019 311)" fill="white"/>
<rect x="199.598" y="168" width="89.5712" height="98" transform="rotate(24.4306 199.598 168)" fill="#E43333"/>
<rect x="232.598" y="45" width="89.5712" height="98" transform="rotate(24.4306 232.598 45)" fill="#E43333"/>
<rect x="399.598" y="404" width="89.5712" height="98" transform="rotate(24.4306 399.598 404)" fill="white"/>
<rect x="605.153" y="501" width="89.5712" height="98" transform="rotate(24.4306 605.153 501)" fill="white"/>
<rect x="400.176" y="261" width="89.5712" height="98" transform="rotate(24.4306 400.176 261)" fill="white"/>
<rect x="433.176" y="138" width="89.5712" height="98" transform="rotate(24.4306 433.176 138)" fill="white"/>
<rect x="599.176" y="356" width="89.5712" height="98" transform="rotate(24.4306 599.176 356)" fill="white"/>
<path d="M179.909 303L179.441 326L142.409 408.5L138.909 392.225L179.909 303Z" fill="#C6C6C6"/>
<path d="M180.487 160L180.019 183L142.987 265.5L139.487 249.225L180.487 160Z" fill="#C6C6C6"/>
<path d="M213.487 37L213.019 60L175.987 142.5L172.487 126.225L213.487 37Z" fill="#C6C6C6"/>
<path d="M381.487 396L381.019 419L343.987 501.5L340.487 485.225L381.487 396Z" fill="#C6C6C6"/>
<path d="M581.487 489L581.019 512L543.987 594.5L540.487 578.225L581.487 489Z" fill="#C6C6C6"/>
<path d="M382.066 253L381.597 276L344.566 358.5L341.066 342.225L382.066 253Z" fill="#C6C6C6"/>
<path d="M415.066 130L414.597 153L377.566 235.5L374.066 219.225L415.066 130Z" fill="#C6C6C6"/>
<path d="M581.066 348L580.597 371L543.566 453.5L540.066 437.225L581.066 348Z" fill="#C6C6C6"/>
<path d="M614.066 225L613.597 248L576.566 330.5L573.066 314.225L614.066 225Z" fill="#C6C6C6"/>
<path d="M280.487 348L280.019 371L242.987 453.5L239.487 437.225L280.487 348Z" fill="#C6C6C6"/>
<path d="M281.066 205L280.598 228L243.566 310.5L240.066 294.225L281.066 205Z" fill="#C6C6C6"/>
<path d="M314.066 82L313.598 105L276.566 187.5L273.066 171.225L314.066 82Z" fill="#C6C6C6"/>
<path d="M481.066 441L480.597 464L443.566 546.5L440.066 530.225L481.066 441Z" fill="#C6C6C6"/>
<path d="M686.621 538L686.153 561L649.121 643.5L645.621 627.225L686.621 538Z" fill="#C6C6C6"/>
<path d="M639.043 657L639.543 680.5L602.511 763L598.981 746.824L639.043 657Z" fill="#C6C6C6"/>
<path d="M481.644 298L481.176 321L444.144 403.5L440.644 387.225L481.644 298Z" fill="#C6C6C6"/>
<path d="M514.644 175L514.176 198L477.144 280.5L473.644 264.225L514.644 175Z" fill="#C6C6C6"/>
<path d="M680.644 393L680.176 416L643.144 498.5L639.644 482.225L680.644 393Z" fill="#C6C6C6"/>
<path d="M58.0462 355L139.597 392.046L142.409 408.5L66.9093 373.5L58.0462 355Z" fill="#C6C6C6"/>
<path d="M58.6243 212L140.176 249.046L142.987 265.5L67.4875 230.5L58.6243 212Z" fill="#C6C6C6"/>
<path d="M91.6243 89L173.176 126.046L175.987 142.5L100.487 107.5L91.6243 89Z" fill="#C6C6C6"/>
<path d="M259.624 448L341.176 485.046L343.987 501.5L268.487 466.5L259.624 448Z" fill="#C6C6C6"/>
<path d="M459.624 541L541.176 578.046L543.987 594.5L468.487 559.5L459.624 541Z" fill="#C6C6C6"/>
<path d="M260.202 305L341.754 342.046L344.566 358.5L269.066 323.5L260.202 305Z" fill="#C6C6C6"/>
<path d="M293.203 182L374.754 219.046L377.566 235.5L302.066 200.5L293.203 182Z" fill="#C6C6C6"/>
<path d="M459.202 400L540.754 437.046L543.566 453.5L468.066 418.5L459.202 400Z" fill="#C6C6C6"/>
<path d="M492.203 277L573.754 314.046L576.566 330.5L501.066 295.5L492.203 277Z" fill="#C6C6C6"/>
<path d="M158.624 400L240.176 437.046L242.987 453.5L167.487 418.5L158.624 400Z" fill="#C6C6C6"/>
<path d="M159.202 257L240.754 294.046L243.566 310.5L168.066 275.5L159.202 257Z" fill="#C6C6C6"/>
<path d="M192.202 134L273.754 171.046L276.566 187.5L201.066 152.5L192.202 134Z" fill="#C6C6C6"/>
<path d="M359.203 493L440.754 530.046L443.566 546.5L368.066 511.5L359.203 493Z" fill="#C6C6C6"/>
<path d="M564.758 590L646.309 627.046L649.121 643.5L573.621 608.5L564.758 590Z" fill="#C6C6C6"/>
<path d="M359.781 350L441.332 387.046L444.144 403.5L368.644 368.5L359.781 350Z" fill="#C6C6C6"/>
<path d="M392.781 227L474.332 264.046L477.144 280.5L401.644 245.5L392.781 227Z" fill="#C6C6C6"/>
<path d="M558.781 445L640.332 482.046L643.144 498.5L567.644 463.5L558.781 445Z" fill="#C6C6C6"/>
<path d="M254.208 98.1721C254.328 97.8925 254.528 97.7084 254.809 97.6198C255.097 97.5165 255.388 97.5277 255.682 97.6534L265.526 101.857C265.263 102.475 264.943 102.878 264.567 103.065C264.191 103.253 263.746 103.237 263.231 103.017L255.925 99.8968L253.861 104.731L260.041 107.37C259.777 107.988 259.457 108.39 259.081 108.578C258.705 108.765 258.26 108.749 257.745 108.529L253.088 106.54L250.731 112.058C250.486 112.632 250.135 112.987 249.677 113.122C249.226 113.242 248.647 113.151 247.94 112.85L254.208 98.1721Z" fill="black"/>
<path d="M352.208 147.172C352.328 146.893 352.521 146.705 352.787 146.61C353.075 146.507 353.374 146.521 353.683 146.653L359.774 149.255C361.202 149.864 362.156 150.767 362.636 151.964C363.138 153.153 363.093 154.439 362.502 155.822C361.761 157.558 360.479 158.463 358.655 158.537L358.627 158.603C359.17 159.166 359.495 159.809 359.603 160.534C359.717 161.244 359.602 162.003 359.256 162.813L358.285 165.086C358.047 165.645 357.688 165.996 357.209 166.14C356.73 166.283 356.152 166.211 355.475 165.922L357.125 162.059C357.496 161.191 357.577 160.451 357.368 159.84C357.18 159.221 356.704 158.748 355.938 158.421L350.774 156.215L348.728 161.005C348.49 161.564 348.131 161.915 347.652 162.059C347.188 162.209 346.617 162.139 345.94 161.85L352.208 147.172ZM356.569 156.576C357.379 156.922 358.126 156.945 358.81 156.646C359.509 156.353 360.044 155.772 360.415 154.904C360.792 154.021 360.853 153.247 360.598 152.582C360.343 151.916 359.789 151.401 358.935 151.036L353.903 148.887L351.537 154.427L356.569 156.576Z" fill="black"/>
<path d="M453.208 190.172C453.328 189.893 453.528 189.708 453.809 189.62C454.097 189.517 454.388 189.528 454.682 189.653L464.46 193.829C464.196 194.447 463.876 194.85 463.501 195.037C463.125 195.225 462.672 195.205 462.142 194.979L454.925 191.897L452.814 196.841L458.994 199.48C458.73 200.098 458.41 200.501 458.034 200.688C457.658 200.876 457.213 200.859 456.698 200.64L452.041 198.651L449.873 203.727L457.554 207.007C458.069 207.227 458.389 207.538 458.513 207.939C458.638 208.34 458.568 208.85 458.304 209.468L448.085 205.104C447.79 204.978 447.578 204.783 447.447 204.518C447.323 204.239 447.321 203.96 447.44 203.68L453.208 190.172Z" fill="black"/>
<path d="M213.085 237.104C212.79 236.978 212.578 236.783 212.447 236.518C212.323 236.239 212.321 235.96 212.44 235.68L218.208 222.172C218.328 221.893 218.521 221.705 218.787 221.61C219.075 221.507 219.374 221.521 219.683 221.653L224.847 223.859C226.098 224.393 227.101 225.1 227.856 225.979C228.612 226.858 229.072 227.838 229.237 228.917C229.424 229.989 229.284 231.069 228.819 232.158L227.01 236.395C226.545 237.484 225.858 238.339 224.949 238.96C224.055 239.587 223.018 239.936 221.84 240.007C220.682 240.07 219.486 239.837 218.25 239.309L213.085 237.104ZM218.802 237.405C220.214 238.008 221.459 238.148 222.537 237.826C223.62 237.488 224.417 236.723 224.926 235.531L226.754 231.25C227.257 230.072 227.252 228.983 226.74 227.982C226.229 226.98 225.266 226.178 223.854 225.575L219.925 223.897L214.873 235.727L218.802 237.405Z" fill="black"/>
<path d="M419.363 323.156L418.043 311.032C418.177 311.002 418.357 311.009 418.582 311.053C418.828 311.088 419.046 311.147 419.238 311.229C419.988 311.549 420.39 312.095 420.444 312.866L421.192 321.562L420.333 322.292L420.45 322.446L428.102 316.136C428.711 315.648 429.391 315.564 430.141 315.885C430.332 315.966 430.518 316.081 430.699 316.227C430.901 316.366 431.038 316.494 431.109 316.611L421.438 324.042L419.694 328.126C419.456 328.685 419.097 329.036 418.618 329.179C418.139 329.323 417.561 329.25 416.884 328.961L419.363 323.156Z" fill="black"/>
<path d="M501.93 499.942C501.826 500.212 502.525 500.78 504.028 501.647C503.938 502.112 503.72 502.558 503.374 502.984C501.428 502.072 499.96 501.393 498.97 500.947C497.995 500.507 496.521 499.859 494.55 499.004C494.511 498.481 494.715 498.029 495.162 497.648C496.785 498.191 497.66 498.342 497.787 498.099C498.748 496.158 499.587 494.411 500.305 492.858L499.447 484.128C499.361 483.387 498.7 482.66 497.461 481.947C497.504 481.7 497.572 481.474 497.665 481.267C497.764 481.047 497.915 480.827 498.116 480.609C499.593 481.344 501.35 482.171 503.386 483.09C504.861 483.754 505.957 484.232 506.675 484.521C506.637 484.795 506.577 485.022 506.497 485.2C506.404 485.406 506.262 485.625 506.072 485.857C505.285 485.57 504.729 485.396 504.405 485.336C504.08 485.275 503.885 485.32 503.817 485.469C503.798 485.512 503.954 487.485 504.284 491.388C507.673 489.043 509.376 487.852 509.392 487.817C509.424 487.745 509.41 487.662 509.351 487.567C509.291 487.471 509.194 487.372 509.061 487.269C508.934 487.169 508.81 487.083 508.688 487.011C508.574 486.942 508.438 486.863 508.28 486.775C508.133 486.683 508.046 486.631 508.017 486.618C508.066 486.186 508.28 485.768 508.659 485.365C509.944 486.013 510.907 486.482 511.548 486.771C512.146 487.04 513.028 487.404 514.193 487.861C514.135 488.426 513.931 488.878 513.581 489.218C512.439 488.823 511.569 488.824 510.969 489.222L504.747 493.384C503.443 496.275 502.504 498.461 501.93 499.942ZM498.215 498.318C497.956 498.835 496.976 498.804 495.274 498.225C495.123 498.371 495.044 498.546 495.038 498.749C498.211 500.112 500.914 501.322 503.145 502.38C503.266 502.263 503.345 502.089 503.381 501.856C501.081 500.647 500.042 499.776 500.266 499.243C501.117 497.167 501.796 495.566 502.303 494.441L510.707 488.834C511.436 488.34 512.353 488.282 513.459 488.661C513.578 488.569 513.653 488.402 513.686 488.159C512.869 487.842 512.051 487.499 511.232 487.129C510.491 486.795 509.671 486.4 508.772 485.943C508.656 486.028 508.581 486.195 508.545 486.445C509.541 487.031 509.995 487.515 509.909 487.896C509.877 488.044 509.762 488.185 509.564 488.319L502.816 492.962L502.131 485.133C502.093 484.55 502.308 484.274 502.774 484.305C503.251 484.331 504.277 484.64 505.853 485.231C506.003 485.05 506.079 484.882 506.08 484.729C503.934 483.881 501.313 482.699 498.217 481.182C498.103 481.285 498.027 481.452 497.991 481.684C499.2 482.367 499.843 483.184 499.919 484.135L500.781 492.97C500.012 494.637 499.157 496.42 498.215 498.318ZM517.837 498.079C518.407 498.336 518.737 498.708 518.826 499.194C518.918 499.673 518.841 500.186 518.594 500.735C518.501 500.941 518.359 501.16 518.169 501.391L514.003 499.512C514.625 498.722 515.278 498.224 515.962 498.018C516.657 497.808 517.282 497.829 517.837 498.079ZM513.568 500.191L519.39 502.816C519.665 502.512 519.887 502.171 520.057 501.793C520.433 500.96 520.509 500.154 520.286 499.377C520.073 498.595 519.45 497.971 518.418 497.505C517.072 496.898 515.719 496.875 514.36 497.437C513.002 497.998 511.983 499.03 511.306 500.533C510.583 502.135 510.476 503.54 510.986 504.747C511.496 505.954 512.342 506.824 513.524 507.357C514.4 507.752 515.318 507.883 516.278 507.75C517.248 507.614 518.123 507.147 518.902 506.35C518.854 506.191 518.75 506.05 518.591 505.927C518.544 505.957 518.405 506.036 518.176 506.164C517.957 506.288 517.796 506.378 517.694 506.435C517.594 506.484 517.424 506.549 517.182 506.629C516.951 506.704 516.741 506.742 516.552 506.743C516.371 506.747 516.146 506.731 515.879 506.696C515.615 506.654 515.344 506.571 515.066 506.446C513.97 505.951 513.244 505.233 512.888 504.293C512.535 503.346 512.594 502.313 513.063 501.197C513.175 500.947 513.344 500.612 513.568 500.191ZM518.647 505.348C519.051 505.65 519.313 506.038 519.433 506.512C518.526 507.44 517.522 507.994 516.421 508.175C515.319 508.355 514.288 508.229 513.327 507.795C512.016 507.204 511.079 506.25 510.516 504.933C509.96 503.62 510.077 502.087 510.868 500.335C511.584 498.747 512.672 497.635 514.133 497C515.604 496.361 517.237 496.446 519.032 497.255C521.745 498.479 522.593 500.22 521.574 502.477C521.375 502.919 521.041 503.385 520.571 503.876L514.834 501.289L514.521 501.983C514.168 502.861 514.087 503.668 514.277 504.405C514.47 505.135 514.927 505.719 515.648 506.155C516.115 506.315 516.555 506.328 516.966 506.197C517.377 506.065 517.937 505.782 518.647 505.348ZM518.156 500.537C518.509 499.754 518.459 499.161 518.006 498.76C517.293 498.669 516.572 499.021 515.845 499.816L518.014 500.794C518.027 500.766 518.05 500.725 518.082 500.671C518.115 500.617 518.14 500.573 518.156 500.537ZM526.578 503.526C526.887 503.734 527.091 503.984 527.19 504.278C527.3 504.567 527.284 504.868 527.142 505.182C526.972 505.559 526.706 505.816 526.344 505.953C525.986 506.083 525.604 506.056 525.198 505.873C524.778 505.683 524.464 505.362 524.257 504.909C524.05 504.455 524.07 503.955 524.318 503.406C524.739 502.473 525.521 501.918 526.664 501.739C527.814 501.564 529.105 501.799 530.537 502.445C531.897 503.058 532.728 503.763 533.029 504.558C533.34 505.35 533.205 506.391 532.623 507.68L530.937 511.418L531.63 511.705C532.195 512.012 532.476 512.472 532.472 513.088L531.866 513.521C531.494 513.756 531.191 513.933 530.958 514.051C530.736 514.164 530.438 514.274 530.064 514.38C529.691 514.486 529.3 514.507 528.892 514.443C528.484 514.378 528.037 514.237 527.553 514.019C526.955 513.749 526.604 513.321 526.5 512.734C525.48 512.942 524.351 512.767 523.112 512.208C522.57 511.964 522.146 511.67 521.839 511.326C521.535 510.992 521.357 510.646 521.304 510.287C521.258 509.933 521.255 509.618 521.293 509.344C521.331 509.07 521.406 508.808 521.518 508.559C521.99 507.512 522.696 506.887 523.636 506.685C524.575 506.484 526.241 506.592 528.632 507.01L529.157 505.846C529.414 505.276 529.481 504.805 529.357 504.432C529.241 504.063 528.994 503.793 528.617 503.623C527.812 503.26 527.132 503.227 526.578 503.526ZM528.617 508.212L527.61 510.445C526.518 511.041 525.616 511.178 524.904 510.857C524.491 510.671 524.198 510.418 524.024 510.1C523.858 509.785 523.856 509.446 524.02 509.083C524.284 508.499 524.739 508.126 525.386 507.963C526.041 507.804 527.118 507.887 528.617 508.212ZM527.234 510.108L527.822 508.805C526.619 508.717 525.854 509.036 525.526 509.762C525.388 510.068 525.402 510.332 525.568 510.552C526.007 510.587 526.562 510.439 527.234 510.108ZM525.622 504.933C525.373 504.821 525.28 504.56 525.344 504.152C525.465 503.504 525.869 503.073 526.557 502.861C527.234 502.652 528.06 502.767 529.036 503.207C529.498 503.416 529.787 503.765 529.901 504.253C530.018 504.735 529.916 505.331 529.595 506.043L528.925 507.528C526.58 507.122 524.935 506.997 523.99 507.154C523.049 507.303 522.371 507.837 521.956 508.756C521.738 509.24 521.696 509.77 521.831 510.345C521.969 510.913 522.462 511.388 523.309 511.77C523.644 511.921 523.981 512.009 524.322 512.034C524.669 512.062 525.052 512.029 525.472 511.936C525.901 511.838 526.166 511.773 526.266 511.741C526.366 511.709 526.534 511.652 526.768 511.569C527.013 511.483 527.146 511.435 527.166 511.427C526.787 512.516 526.982 513.234 527.751 513.581C527.943 513.667 528.186 513.717 528.48 513.73C528.775 513.743 529.112 513.659 529.493 513.48C529.881 513.303 530.128 513.183 530.234 513.12C530.35 513.052 530.523 512.946 530.751 512.8C530.983 512.647 531.148 512.546 531.248 512.497C531.245 512.256 531.118 512.062 530.868 511.914C530.206 512.336 529.676 512.448 529.276 512.251C528.991 512.105 528.938 511.832 529.118 511.433L531.117 507C531.631 505.861 531.77 504.955 531.533 504.282C531.307 503.606 530.652 503.024 529.57 502.536C528.594 502.096 527.633 501.966 526.685 502.147C525.748 502.325 525.102 502.809 524.745 503.599C524.562 504.005 524.544 504.378 524.69 504.718C524.84 505.052 525.075 505.29 525.395 505.435C525.559 505.338 525.635 505.17 525.622 504.933ZM539.29 511.368C539.764 510.793 540.418 510.321 541.253 509.952C542.088 509.583 542.794 509.529 543.371 509.789C544.047 510.094 544.288 510.464 544.092 510.898C543.915 511.29 543.617 511.456 543.199 511.395C543.035 511.493 542.959 511.66 542.972 511.897C543.357 512.071 543.723 512.095 544.072 511.969C544.427 511.846 544.699 511.575 544.889 511.155C545.088 510.713 545.108 510.307 544.95 509.935C544.802 509.56 544.515 509.276 544.087 509.084C543.532 508.833 542.872 508.805 542.107 509C541.352 509.191 540.645 509.468 539.984 509.83L540.813 507.992C540.807 507.853 540.728 507.705 540.575 507.551C539.418 507.569 538.183 507.363 536.868 506.933C536.748 507.085 536.673 507.252 536.642 507.435C537.584 507.911 538.205 508.367 538.506 508.803C537.365 511.485 536.397 513.611 535.603 515.181C535.351 515.702 534.592 515.771 533.325 515.388C533.131 515.532 533.056 515.699 533.098 515.89C535.003 516.646 537.036 517.563 539.198 518.641C539.362 518.544 539.437 518.376 539.424 518.139C537.807 517.221 537.11 516.495 537.334 515.962C537.922 514.487 538.574 512.956 539.29 511.368ZM538.85 516.62C538.739 516.904 539.121 517.338 539.998 517.922C540.021 518.498 539.803 518.944 539.343 519.259C536.369 517.798 534.096 516.747 532.525 516.107C532.451 515.568 532.631 515.131 533.065 514.795C534.332 515.178 535.036 515.234 535.175 514.963C536.176 512.971 537.102 510.938 537.952 508.862C537.547 508.507 536.94 508.123 536.133 507.707C536.162 507.206 536.366 506.754 536.745 506.351C537.967 506.816 539.372 507.064 540.961 507.095C541.691 507.527 542.164 508.019 542.378 508.57C543.172 508.405 543.808 508.43 544.285 508.646C544.84 508.896 545.219 509.264 545.42 509.749C545.621 510.234 545.59 510.768 545.327 511.352C545.076 511.908 544.716 512.268 544.247 512.434C543.779 512.6 543.288 512.567 542.775 512.335C542.298 512.12 541.971 511.78 541.795 511.315C541.327 511.575 540.984 511.849 540.769 512.138C540.072 513.683 539.432 515.177 538.85 516.62ZM545.194 521.423C544.801 521.382 544.403 521.37 544.002 521.386C543.76 521.029 543.634 520.719 543.624 520.457C543.657 520.421 543.745 520.285 543.886 520.048C544.026 519.812 544.187 519.533 544.366 519.211C544.553 518.892 544.737 518.56 544.919 518.213C545.101 517.867 545.248 517.569 545.361 517.32C545.766 517.314 546.318 517.469 547.015 517.783C547.094 517.819 547.172 517.854 547.25 517.889C547.329 517.925 547.409 517.965 547.491 518.011C547.252 519.909 547.546 521.129 548.372 521.673C548.761 521.78 549.098 521.774 549.383 521.654C549.679 521.53 549.887 521.337 550.005 521.073C550.092 520.881 550.119 520.679 550.086 520.467C550.056 520.248 549.985 520.027 549.871 519.804C549.757 519.581 549.606 519.355 549.419 519.124C549.238 518.897 549.042 518.667 548.83 518.435C548.621 518.195 548.405 517.96 548.183 517.731C547.964 517.495 547.757 517.261 547.562 517.027C547.353 516.787 547.17 516.529 547.012 516.252C546.857 515.968 546.741 515.675 546.662 515.374C546.587 515.066 546.557 514.753 546.572 514.434C546.595 514.118 546.676 513.804 546.818 513.49C546.969 513.156 547.183 512.832 547.461 512.521C547.739 512.209 548.084 511.966 548.496 511.792C548.909 511.618 549.394 511.541 549.951 511.561C550.511 511.574 551.147 511.74 551.859 512.062C552.649 512.418 553.214 512.724 553.553 512.98L554.006 513.03L554.732 513.358C554.552 514.005 554.407 514.621 554.297 515.206C554.195 515.794 554.123 516.352 554.081 516.882C553.637 517.05 553.197 517.036 552.763 516.84C552.649 516.446 552.541 516.089 552.437 515.768C552.336 515.44 552.229 515.147 552.113 514.889C552.005 514.635 551.883 514.412 551.746 514.222C551.616 514.035 551.464 513.876 551.291 513.747C550.786 513.613 550.455 513.721 550.297 514.07C550.172 514.348 550.184 514.644 550.333 514.96C550.482 515.276 550.699 515.601 550.986 515.936C551.272 516.271 551.593 516.613 551.95 516.962C552.317 517.308 552.654 517.652 552.961 517.997C553.184 518.243 553.374 518.517 553.529 518.819C553.692 519.123 553.808 519.446 553.877 519.786C553.95 520.118 553.969 520.465 553.935 520.827C553.903 521.181 553.807 521.537 553.647 521.893C553.409 522.42 553.06 522.832 552.6 523.13C552.147 523.432 551.634 523.629 551.061 523.722C550.494 523.818 549.895 523.817 549.261 523.72C548.628 523.623 548.02 523.443 547.436 523.179C546.431 522.726 545.684 522.141 545.194 521.423ZM547.558 522.708C548.449 523.109 549.329 523.189 550.201 522.948C551.072 522.707 551.656 522.259 551.952 521.604C552.241 520.963 552.294 520.323 552.111 519.683C551.931 519.036 551.621 518.459 551.181 517.953C550.742 517.446 550.289 516.958 549.822 516.491C549.359 516.017 548.998 515.545 548.738 515.076C548.478 514.608 548.436 514.177 548.613 513.786C548.838 513.287 549.193 512.993 549.679 512.904C550.165 512.815 550.657 512.882 551.156 513.107C551.683 513.345 552.079 513.721 552.344 514.235C552.609 514.749 552.879 515.5 553.153 516.489C553.345 516.576 553.505 516.592 553.632 516.538C553.709 515.664 553.598 514.865 553.3 514.139C553.012 513.409 552.466 512.863 551.661 512.5C550.515 511.982 549.568 511.886 548.823 512.209C548.08 512.526 547.558 513.018 547.256 513.688C546.999 514.258 546.967 514.831 547.162 515.407C547.366 515.979 547.686 516.496 548.121 516.958C548.566 517.415 549.007 517.872 549.445 518.326C549.882 518.781 550.213 519.264 550.436 519.776C550.659 520.288 550.662 520.786 550.443 521.271C550.26 521.677 549.922 521.961 549.428 522.124C548.935 522.287 548.375 522.227 547.748 521.945C546.993 521.604 546.517 521.102 546.319 520.439C546.132 519.772 546.093 518.944 546.204 517.957C545.955 517.845 545.778 517.791 545.673 517.795C545.442 518.308 545.152 518.884 544.803 519.524C544.455 520.164 544.228 520.533 544.124 520.631C544.142 520.725 544.18 520.82 544.24 520.915C544.625 520.84 544.948 520.724 545.207 520.567C545.676 521.199 546.058 521.654 546.353 521.932C546.651 522.221 547.053 522.48 547.558 522.708Z" fill="black"/>
<path d="M489.812 504.766C489.869 504.639 489.959 504.555 490.082 504.514C490.215 504.469 490.351 504.479 490.492 504.542L493.42 505.862C493.861 506.061 494.21 506.331 494.466 506.672C494.726 507.007 494.874 507.383 494.91 507.802C494.95 508.214 494.873 508.634 494.68 509.061C494.481 509.503 494.212 509.848 493.875 510.098C493.543 510.351 493.166 510.491 492.744 510.517C492.322 510.544 491.887 510.456 491.439 510.254L488.972 509.142L488.099 511.077C487.985 511.331 487.817 511.489 487.596 511.55C487.376 511.611 487.111 511.573 486.804 511.434L489.812 504.766ZM491.814 509.422C492.215 509.603 492.587 509.626 492.93 509.491C493.275 509.349 493.544 509.064 493.737 508.636C493.924 508.222 493.952 507.84 493.82 507.491C493.697 507.138 493.439 506.873 493.044 506.695L490.578 505.582L489.348 508.31L491.814 509.422ZM497.427 510.904C497.053 510.735 496.691 510.709 496.341 510.824C495.994 510.933 495.748 511.148 495.604 511.469L494.419 514.096C494.319 514.317 494.172 514.448 493.977 514.488C493.791 514.525 493.551 514.477 493.257 514.345L495.265 509.893C495.488 509.398 495.881 509.277 496.442 509.53L496.166 510.142C496.008 510.208 495.889 510.275 495.81 510.343L495.832 510.402C496.546 509.96 497.224 509.883 497.866 510.173C498.107 510.281 498.263 510.424 498.336 510.602C498.412 510.773 498.412 510.942 498.337 511.109C498.282 511.229 498.204 511.323 498.102 511.389C497.96 511.204 497.735 511.043 497.427 510.904ZM498.57 516.741C498.162 516.557 497.826 516.313 497.561 516.008C497.303 515.707 497.139 515.384 497.069 515.038C497.009 514.69 497.053 514.351 497.201 514.024L497.943 512.379C498.093 512.045 498.321 511.782 498.625 511.589C498.936 511.399 499.291 511.298 499.691 511.285C500.091 511.273 500.498 511.36 500.913 511.547C501.327 511.734 501.662 511.981 501.917 512.29C502.179 512.601 502.338 512.934 502.395 513.29C502.459 513.648 502.415 513.994 502.264 514.329L501.523 515.973C501.375 516.301 501.147 516.556 500.839 516.739C500.535 516.915 500.184 517.006 499.787 517.012C499.39 517.018 498.984 516.928 498.57 516.741ZM498.909 515.989C499.31 516.17 499.67 516.219 499.988 516.138C500.316 516.052 500.55 515.856 500.688 515.549L501.399 513.974C501.543 513.653 501.541 513.338 501.39 513.029C501.247 512.723 500.975 512.48 500.573 512.299C500.179 512.121 499.816 512.078 499.485 512.17C499.154 512.262 498.916 512.469 498.771 512.789L498.061 514.364C497.923 514.671 497.927 514.975 498.073 515.274C498.229 515.57 498.508 515.808 498.909 515.989ZM502.838 521.079C502.49 520.923 502.192 520.72 501.942 520.47C501.692 520.221 501.524 519.96 501.438 519.688C501.349 519.422 501.354 519.179 501.453 518.959C501.532 518.785 501.646 518.683 501.796 518.654C501.952 518.629 502.131 518.661 502.331 518.751C502.203 519.071 502.212 519.373 502.357 519.656C502.507 519.949 502.776 520.183 503.163 520.357C504.019 520.743 504.634 520.522 505.008 519.693L505.27 519.111C505.4 519.073 505.503 519.031 505.58 518.986L505.573 518.922C505.285 519.042 504.964 519.102 504.61 519.103C504.262 519.107 503.941 519.043 503.647 518.91C503.072 518.651 502.672 518.281 502.446 517.801C502.23 517.318 502.239 516.815 502.474 516.294L503.202 514.679C503.356 514.338 503.575 514.075 503.86 513.89C504.155 513.701 504.482 513.599 504.842 513.585C505.21 513.573 505.574 513.649 505.935 513.812C506.59 514.107 507.008 514.642 507.19 515.416L507.248 515.394L507.161 515.053C507.245 514.866 507.372 514.754 507.541 514.718C507.72 514.678 507.957 514.724 508.251 514.857L505.931 520.001C505.75 520.402 505.496 520.714 505.171 520.937C504.848 521.17 504.484 521.299 504.078 521.325C503.672 521.351 503.259 521.269 502.838 521.079ZM504.151 518.221C504.506 518.38 504.849 518.423 505.18 518.347C505.515 518.265 505.741 518.093 505.859 517.832L506.596 516.198C506.72 515.924 506.7 515.637 506.537 515.339C506.381 515.043 506.129 514.817 505.781 514.66C505.38 514.479 505.029 514.429 504.727 514.51C504.428 514.584 504.204 514.785 504.057 515.113L503.365 516.647C503.223 516.961 503.218 517.257 503.351 517.534C503.49 517.814 503.757 518.043 504.151 518.221ZM511.479 517.242C511.105 517.073 510.743 517.047 510.393 517.162C510.046 517.271 509.8 517.486 509.656 517.807L508.471 520.434C508.371 520.655 508.224 520.786 508.028 520.826C507.843 520.863 507.603 520.815 507.309 520.683L509.317 516.23C509.54 515.736 509.932 515.615 510.494 515.868L510.218 516.48C510.06 516.545 509.941 516.613 509.862 516.681L509.884 516.74C510.598 516.297 511.276 516.221 511.918 516.511C512.158 516.619 512.315 516.762 512.388 516.94C512.464 517.111 512.464 517.28 512.388 517.447C512.334 517.567 512.256 517.661 512.153 517.727C512.011 517.542 511.787 517.381 511.479 517.242ZM512.587 523.063C512.012 522.804 511.617 522.441 511.401 521.973C511.192 521.509 511.201 521.026 511.427 520.525C511.656 520.017 512.024 519.692 512.53 519.55C513.039 519.402 513.595 519.463 514.197 519.735C514.838 520.024 515.264 520.49 515.473 521.131L515.532 521.109C515.494 520.996 515.448 520.874 515.394 520.745L515.584 520.324C515.738 519.983 515.75 519.671 515.62 519.387C515.491 519.104 515.229 518.873 514.834 518.695C514.133 518.378 513.506 518.43 512.955 518.849C512.872 518.747 512.814 518.636 512.779 518.516C512.755 518.392 512.763 518.284 512.806 518.19C512.887 518.01 513.054 517.88 513.307 517.801C513.563 517.715 513.86 517.689 514.2 517.721C514.546 517.756 514.883 517.848 515.21 517.996C515.845 518.282 516.272 518.664 516.492 519.141C516.718 519.621 516.705 520.138 516.455 520.693L515.216 523.441C515.11 523.675 514.967 523.815 514.785 523.861C514.603 523.908 514.368 523.867 514.081 523.737L514.293 523.266C514.5 523.182 514.616 523.13 514.642 523.109L514.62 523.051C513.953 523.37 513.275 523.374 512.587 523.063ZM513.049 522.439C513.464 522.626 513.827 522.685 514.139 522.617C514.458 522.552 514.687 522.365 514.826 522.058C514.965 521.75 514.958 521.454 514.805 521.168C514.653 520.882 514.372 520.647 513.965 520.463C513.584 520.291 513.242 520.245 512.94 520.326C512.648 520.404 512.431 520.599 512.289 520.914C512.147 521.228 512.141 521.519 512.27 521.786C512.408 522.049 512.668 522.267 513.049 522.439ZM518.277 520.272C518.5 519.777 518.889 519.655 519.444 519.905L519.154 520.547C519.025 520.601 518.914 520.66 518.822 520.723L518.844 520.781C519.193 520.576 519.526 520.445 519.842 520.386C520.158 520.328 520.473 520.369 520.787 520.511C521.396 520.786 521.682 521.265 521.647 521.949C522.291 521.539 522.93 521.478 523.565 521.764C524.04 521.978 524.332 522.303 524.441 522.738C524.56 523.17 524.503 523.643 524.271 524.158L522.996 526.986C522.896 527.206 522.749 527.337 522.553 527.377C522.368 527.414 522.131 527.368 521.844 527.238L523.386 523.819C523.531 523.498 523.577 523.217 523.525 522.977C523.472 522.736 523.303 522.551 523.015 522.421C522.714 522.285 522.41 522.273 522.103 522.384C521.798 522.488 521.569 522.71 521.416 523.051L520.208 525.728C520.109 525.949 519.965 526.081 519.776 526.125C519.59 526.162 519.354 526.115 519.066 525.986L520.609 522.566C520.753 522.246 520.799 521.965 520.747 521.724C520.695 521.483 520.525 521.298 520.238 521.168C519.93 521.03 519.62 521.022 519.306 521.146C518.993 521.27 518.764 521.493 518.619 521.814L517.421 524.471C517.321 524.692 517.174 524.822 516.978 524.863C516.793 524.9 516.556 524.853 516.269 524.724L518.277 520.272ZM526.022 523.765C526.246 523.271 526.635 523.148 527.189 523.399L526.9 524.04C526.771 524.095 526.66 524.153 526.567 524.216L526.589 524.274C526.939 524.07 527.272 523.939 527.588 523.88C527.904 523.821 528.219 523.863 528.533 524.005C529.141 524.279 529.428 524.758 529.393 525.442C530.036 525.033 530.676 524.971 531.311 525.258C531.785 525.472 532.077 525.796 532.186 526.232C532.305 526.664 532.249 527.137 532.017 527.652L530.741 530.479C530.642 530.7 530.494 530.83 530.299 530.871C530.113 530.908 529.877 530.862 529.59 530.732L531.132 527.313C531.276 526.992 531.323 526.711 531.27 526.47C531.218 526.229 531.048 526.044 530.761 525.915C530.46 525.779 530.156 525.766 529.848 525.877C529.544 525.981 529.315 526.204 529.161 526.545L527.954 529.222C527.854 529.443 527.71 529.575 527.522 529.618C527.336 529.655 527.099 529.609 526.812 529.479L528.354 526.06C528.499 525.739 528.545 525.458 528.493 525.217C528.441 524.977 528.271 524.791 527.983 524.662C527.676 524.523 527.365 524.516 527.052 524.64C526.738 524.764 526.509 524.987 526.365 525.307L525.166 527.965C525.067 528.185 524.919 528.316 524.724 528.356C524.538 528.393 524.302 528.347 524.014 528.217L526.022 523.765ZM535.104 526.063C534.917 525.979 534.787 525.848 534.714 525.67C534.641 525.493 534.645 525.314 534.727 525.133C534.808 524.953 534.938 524.834 535.116 524.778C535.298 524.715 535.482 524.726 535.669 524.81C535.85 524.891 535.976 525.021 536.049 525.199C536.125 525.369 536.122 525.545 536.04 525.726C535.959 525.906 535.828 526.028 535.646 526.091C535.465 526.154 535.284 526.145 535.104 526.063ZM534.034 527.258C534.133 527.038 534.276 526.909 534.462 526.872C534.657 526.831 534.902 526.877 535.196 527.01L533.142 531.562C533.043 531.783 532.896 531.913 532.7 531.954C532.515 531.991 532.275 531.943 531.981 531.811L534.034 527.258ZM536.49 528.487C536.713 527.992 537.106 527.871 537.667 528.125L537.378 528.766C537.291 528.799 537.18 528.858 537.045 528.942L537.067 529C537.394 528.81 537.758 528.7 538.157 528.671C538.559 528.636 538.947 528.702 539.322 528.871C539.863 529.115 540.219 529.469 540.388 529.931C540.558 530.394 540.528 530.879 540.299 531.387L539.023 534.215C538.924 534.435 538.776 534.566 538.581 534.607C538.395 534.644 538.156 534.596 537.861 534.463L539.386 531.084C539.53 530.763 539.555 530.468 539.459 530.2C539.362 529.931 539.131 529.714 538.763 529.548C538.516 529.436 538.258 529.384 537.989 529.392C537.73 529.396 537.492 529.458 537.277 529.578C537.072 529.694 536.922 529.856 536.829 530.063L535.644 532.691C535.545 532.911 535.397 533.042 535.202 533.082C535.016 533.119 534.776 533.072 534.482 532.939L536.49 528.487ZM541.125 538.349C540.778 538.192 540.479 537.989 540.23 537.739C539.98 537.49 539.812 537.229 539.726 536.957C539.636 536.691 539.641 536.448 539.741 536.228C539.819 536.054 539.933 535.953 540.083 535.924C540.24 535.898 540.418 535.93 540.619 536.02C540.49 536.341 540.499 536.642 540.645 536.925C540.795 537.218 541.063 537.452 541.451 537.627C542.307 538.013 542.921 537.791 543.295 536.962L543.558 536.381C543.687 536.343 543.791 536.301 543.868 536.255L543.86 536.191C543.573 536.311 543.252 536.371 542.898 536.372C542.55 536.377 542.229 536.312 541.935 536.18C541.36 535.92 540.959 535.551 540.733 535.071C540.517 534.587 540.527 534.084 540.762 533.563L541.49 531.949C541.644 531.608 541.863 531.344 542.148 531.159C542.442 530.97 542.77 530.868 543.13 530.854C543.497 530.843 543.861 530.918 544.222 531.081C544.877 531.377 545.296 531.911 545.478 532.685L545.536 532.663L545.448 532.322C545.533 532.135 545.66 532.023 545.829 531.987C546.008 531.947 546.244 531.993 546.538 532.126L544.218 537.27C544.037 537.671 543.784 537.983 543.458 538.206C543.136 538.439 542.772 538.568 542.366 538.594C541.96 538.62 541.546 538.539 541.125 538.349ZM542.439 535.49C542.793 535.65 543.136 535.692 543.468 535.616C543.803 535.534 544.029 535.362 544.146 535.102L544.884 533.467C545.007 533.193 544.988 532.907 544.825 532.608C544.669 532.312 544.417 532.086 544.069 531.929C543.668 531.748 543.316 531.698 543.014 531.779C542.715 531.854 542.492 532.055 542.344 532.382L541.652 533.916C541.511 534.23 541.506 534.526 541.638 534.803C541.778 535.083 542.044 535.312 542.439 535.49Z" fill="black"/>
<path d="M315.085 284.104C314.79 283.978 314.578 283.783 314.447 283.518C314.323 283.239 314.321 282.96 314.44 282.68L320.208 269.172C320.328 268.893 320.521 268.705 320.787 268.61C321.075 268.507 321.374 268.521 321.683 268.653L326.847 270.859C328.098 271.393 329.101 272.1 329.856 272.979C330.612 273.858 331.072 274.838 331.237 275.917C331.424 276.989 331.284 278.069 330.819 279.158L329.01 283.395C328.545 284.484 327.858 285.339 326.949 285.96C326.055 286.587 325.018 286.936 323.84 287.007C322.682 287.07 321.486 286.837 320.25 286.309L315.085 284.104ZM320.802 284.405C322.214 285.008 323.459 285.148 324.537 284.826C325.62 284.488 326.417 283.723 326.926 282.531L328.754 278.25C329.257 277.072 329.252 275.983 328.74 274.982C328.229 273.98 327.266 273.178 325.854 272.575L321.925 270.897L316.873 282.727L320.802 284.405Z" fill="black"/>
<path d="M316.796 424.644L318.057 425.183L320.404 419.686L325.9 422.033L326.43 420.794L320.933 418.447L323.29 412.929L322.029 412.391L319.672 417.908L314.176 415.561L313.647 416.801L319.143 419.148L316.796 424.644ZM319.086 426.145L316.165 424.897L318.513 419.401L313.016 417.054L313.923 414.931L319.419 417.278L321.776 411.76L324.696 413.007L322.34 418.525L327.836 420.872L326.93 422.995L321.433 420.648L319.086 426.145Z" fill="black"/>
<path d="M415.748 470.108C414.85 469.725 414.229 469.209 413.886 468.561C413.539 467.92 413.477 467.341 413.698 466.824C413.925 466.293 414.249 466.049 414.672 466.094C414.834 465.993 414.906 465.824 414.888 465.587C414.5 465.421 414.122 465.421 413.754 465.587C413.394 465.756 413.107 466.088 412.896 466.584C412.632 467.202 412.725 467.947 413.177 468.819C413.628 469.691 414.415 470.367 415.535 470.846C417.008 471.475 418.53 471.483 420.099 470.87C421.673 470.268 422.799 469.173 423.477 467.585C423.885 466.63 424.074 465.759 424.045 464.973C424.015 464.188 423.788 463.496 423.363 462.899C422.942 462.294 422.417 461.772 421.789 461.334C421.164 460.889 420.395 460.471 419.482 460.082L421.105 457.564L426.483 459.86L428.758 456.92C428.672 456.764 428.517 456.638 428.295 456.543C427.901 456.868 427.524 457.085 427.163 457.194C426.802 457.303 426.237 457.215 425.467 456.929L421.404 455.194C420.061 457.661 418.755 459.627 417.485 461.089C417.492 461.509 417.631 461.81 417.901 461.993C418.627 462.303 419.229 462.603 419.709 462.893C420.196 463.185 420.646 463.543 421.06 463.966C421.481 464.393 421.729 464.885 421.805 465.444C421.884 465.996 421.782 466.602 421.5 467.263C420.834 468.822 419.968 469.795 418.903 470.181C417.842 470.577 416.79 470.553 415.748 470.108ZM428.192 455.977C428.738 456.21 429.113 456.536 429.317 456.954L426.629 460.445L422.21 458.558L421.126 460.261C423.082 461.13 424.423 462.187 425.149 463.432C425.882 464.679 425.831 466.28 424.997 468.234C424.282 469.908 422.922 471.014 420.917 471.551C418.913 472.088 417.052 471.99 415.334 471.257C414.58 470.935 413.963 470.539 413.483 470.071C413.008 469.613 412.689 469.146 412.527 468.669C412.363 468.2 412.277 467.764 412.27 467.362C412.271 466.962 412.334 466.616 412.46 466.321C412.699 465.761 413.073 465.372 413.581 465.156C414.09 464.94 414.603 464.943 415.12 465.164C416.119 465.59 416.382 466.357 415.91 467.463C415.621 468.138 415.084 468.482 414.297 468.494C414.422 468.718 414.703 468.965 415.139 469.237C415.58 469.518 415.949 469.697 416.248 469.774C417.151 470.066 418.037 470.02 418.907 469.635C419.776 469.25 420.493 468.397 421.058 467.075C421.303 466.5 421.38 465.972 421.288 465.491C421.196 465.01 420.951 464.578 420.554 464.196C420.164 463.817 419.742 463.493 419.288 463.222C418.841 462.955 418.287 462.681 417.626 462.398C417.399 462.233 417.24 462.05 417.147 461.85C417.065 461.644 417.017 461.339 417.003 460.934C418.312 459.42 419.709 457.303 421.194 454.581L425.839 456.565C426.233 456.716 426.579 456.762 426.876 456.702C427.177 456.635 427.406 456.555 427.565 456.461C427.734 456.363 427.943 456.202 428.192 455.977Z" fill="black"/>
</svg>
