<svg  xmlns="http://www.w3.org/2000/svg" viewBox="0 0 20 20" xmlns:v="https://vecta.io/nano"><path d="M15.821 14.121c-.241.682-1.199 1.246-1.963 1.411-.523.111-1.205.199-3.503-.753C7.774 13.71 4.19 9.901 4.19 7.366c0-1.29.744-2.793 2.045-2.793.626 0 .764.012.97.506l.899 2.164c.289.603-.294.956-.717 1.481-.135.158-.288.329-.117.623.17.288.758 1.246 1.622 2.016 1.116.994 2.021 1.311 2.345 1.446.241.1.529.077.705-.111.223-.241.5-.641.782-1.035.199-.282.452-.317.717-.217.179.062 2.454 1.118 2.55 1.287.071.123.071.705-.17 1.387M10.002 0h-.005 0C4.484 0 0 4.485 0 10c0 2.187.705 4.215 1.904 5.861L.658 19.577l3.843-1.228A9.92 9.92 0 0 0 10.002 20C15.515 20 20 15.515 20 10S15.515 0 10.002 0" fill-rule="evenodd"/></svg>